<?xml version="1.0" encoding="UTF-8"?>
<svg xmlns="http://www.w3.org/2000/svg" viewBox="0 0 1200 900" role="img" aria-labelledby="lfmt-title lfmt-desc">
  <title id="lfmt-title">Local-First Meeting Transcription — dual transcripts in a review queue</title>
  <desc id="lfmt-desc">Local meeting audio on disk, shown as a waveform. Two transcript columns disagree at the same timestamp. A center review card is where a person picks the agreed line. Structured notes appear only after that agreement. Nothing leaves the machine.</desc>

  <rect width="1200" height="900" fill="#f5f3ed"/>

  <!-- Local tape / waveform -->
  <rect x="28" y="24" width="1144" height="144" rx="6" fill="#16130e"/>
  <circle cx="96" cy="96" r="44" fill="#3a352c" stroke="#fffdf8" stroke-width="3"/>
  <circle cx="96" cy="96" r="14" fill="#f5f3ed"/>
  <circle cx="96" cy="96" r="5" fill="#16130e"/>
  <circle cx="1104" cy="96" r="44" fill="#3a352c" stroke="#fffdf8" stroke-width="3"/>
  <circle cx="1104" cy="96" r="14" fill="#f5f3ed"/>
  <circle cx="1104" cy="96" r="5" fill="#16130e"/>
    <rect x="220" y="88.0" width="6" height="16.0" rx="1" fill="#fffdf8"/>
    <rect x="230" y="78.4" width="6" height="35.1" rx="1" fill="#fffdf8"/>
    <rect x="240" y="86.6" width="6" height="18.9" rx="1" fill="#fffdf8"/>
    <rect x="250" y="84.8" width="6" height="22.3" rx="1" fill="#fffdf8"/>
    <rect x="260" y="82.0" width="6" height="27.9" rx="1" fill="#fffdf8"/>
    <rect x="270" y="80.3" width="6" height="31.4" rx="1" fill="#fffdf8"/>
    <rect x="280" y="82.6" width="6" height="26.8" rx="1" fill="#fffdf8"/>
    <rect x="290" y="87.4" width="6" height="17.1" rx="1" fill="#fffdf8"/>
    <rect x="300" y="87.6" width="6" height="16.8" rx="1" fill="#fffdf8"/>
    <rect x="310" y="87.2" width="6" height="17.6" rx="1" fill="#fffdf8"/>
    <rect x="320" y="73.8" width="6" height="44.3" rx="1" fill="#fffdf8"/>
    <rect x="330" y="84.8" width="6" height="22.5" rx="1" fill="#fffdf8"/>
    <rect x="340" y="76.4" width="6" height="39.2" rx="1" fill="#fffdf8"/>
    <rect x="350" y="87.0" width="6" height="18.0" rx="1" fill="#fffdf8"/>
    <rect x="360" y="74.1" width="6" height="43.9" rx="1" fill="#fffdf8"/>
    <rect x="370" y="69.4" width="6" height="53.2" rx="1" fill="#fffdf8"/>
    <rect x="380" y="75.8" width="6" height="40.4" rx="1" fill="#fffdf8"/>
    <rect x="390" y="78.7" width="6" height="34.6" rx="1" fill="#fffdf8"/>
    <rect x="400" y="88.0" width="6" height="16.1" rx="1" fill="#fffdf8"/>
    <rect x="410" y="87.0" width="6" height="18.0" rx="1" fill="#fffdf8"/>
    <rect x="420" y="87.7" width="6" height="16.6" rx="1" fill="#fffdf8"/>
    <rect x="430" y="72.4" width="6" height="47.2" rx="1" fill="#fffdf8"/>
    <rect x="440" y="82.3" width="6" height="27.5" rx="1" fill="#fffdf8"/>
    <rect x="450" y="85.1" width="6" height="21.8" rx="1" fill="#fffdf8"/>
    <rect x="460" y="77.1" width="6" height="37.9" rx="1" fill="#fffdf8"/>
    <rect x="470" y="65.1" width="6" height="61.9" rx="1" fill="#fffdf8"/>
    <rect x="480" y="56.8" width="6" height="78.3" rx="1" fill="#fffdf8"/>
    <rect x="490" y="78.1" width="6" height="35.8" rx="1" fill="#fffdf8"/>
    <rect x="500" y="82.7" width="6" height="26.6" rx="1" fill="#fffdf8"/>
    <rect x="510" y="87.3" width="6" height="17.5" rx="1" fill="#fffdf8"/>
    <rect x="520" y="80.2" width="6" height="31.6" rx="1" fill="#fffdf8"/>
    <rect x="530" y="87.6" width="6" height="16.8" rx="1" fill="#fffdf8"/>
    <rect x="540" y="78.6" width="6" height="34.9" rx="1" fill="#fffdf8"/>
    <rect x="550" y="84.6" width="6" height="22.9" rx="1" fill="#fffdf8"/>
    <rect x="560" y="80.3" width="6" height="31.4" rx="1" fill="#fffdf8"/>
    <rect x="570" y="64.6" width="6" height="62.8" rx="1" fill="#fffdf8"/>
    <rect x="580" y="65.9" width="6" height="60.2" rx="1" fill="#fffdf8"/>
    <rect x="590" y="54.9" width="6" height="82.1" rx="1" fill="#fffdf8"/>
    <rect x="600" y="84.5" width="6" height="22.9" rx="1" fill="#fffdf8"/>
    <rect x="610" y="80.2" width="6" height="31.6" rx="1" fill="#fffdf8"/>
    <rect x="620" y="86.3" width="6" height="19.3" rx="1" fill="#fffdf8"/>
    <rect x="630" y="72.1" width="6" height="47.9" rx="1" fill="#8a5a20"/>
    <rect x="640" y="86.1" width="6" height="19.7" rx="1" fill="#fffdf8"/>
    <rect x="650" y="85.7" width="6" height="20.7" rx="1" fill="#fffdf8"/>
    <rect x="660" y="86.5" width="6" height="19.0" rx="1" fill="#fffdf8"/>
    <rect x="670" y="76.6" width="6" height="38.9" rx="1" fill="#fffdf8"/>
    <rect x="680" y="59.5" width="6" height="73.0" rx="1" fill="#fffdf8"/>
    <rect x="690" y="75.1" width="6" height="41.9" rx="1" fill="#fffdf8"/>
    <rect x="700" y="66.8" width="6" height="58.4" rx="1" fill="#fffdf8"/>
    <rect x="710" y="87.9" width="6" height="16.2" rx="1" fill="#fffdf8"/>
    <rect x="720" y="66.6" width="6" height="58.8" rx="1" fill="#fffdf8"/>
    <rect x="730" y="80.8" width="6" height="30.5" rx="1" fill="#fffdf8"/>
    <rect x="740" y="70.1" width="6" height="51.8" rx="1" fill="#fffdf8"/>
    <rect x="750" y="84.3" width="6" height="23.4" rx="1" fill="#fffdf8"/>
    <rect x="760" y="88.0" width="6" height="16.1" rx="1" fill="#fffdf8"/>
    <rect x="770" y="84.4" width="6" height="23.2" rx="1" fill="#fffdf8"/>
    <rect x="780" y="80.3" width="6" height="31.5" rx="1" fill="#fffdf8"/>
    <rect x="790" y="65.8" width="6" height="60.3" rx="1" fill="#fffdf8"/>
    <rect x="800" y="84.3" width="6" height="23.5" rx="1" fill="#fffdf8"/>
    <rect x="810" y="83.7" width="6" height="24.6" rx="1" fill="#fffdf8"/>
    <rect x="820" y="86.2" width="6" height="19.6" rx="1" fill="#fffdf8"/>
    <rect x="830" y="63.4" width="6" height="65.2" rx="1" fill="#fffdf8"/>
    <rect x="840" y="77.4" width="6" height="37.2" rx="1" fill="#fffdf8"/>
    <rect x="850" y="76.4" width="6" height="39.3" rx="1" fill="#fffdf8"/>
    <rect x="860" y="86.1" width="6" height="19.9" rx="1" fill="#fffdf8"/>
    <rect x="870" y="86.9" width="6" height="18.3" rx="1" fill="#fffdf8"/>
    <rect x="880" y="86.7" width="6" height="18.6" rx="1" fill="#fffdf8"/>
    <rect x="890" y="85.5" width="6" height="21.1" rx="1" fill="#fffdf8"/>
    <rect x="900" y="77.9" width="6" height="36.2" rx="1" fill="#fffdf8"/>
    <rect x="910" y="87.9" width="6" height="16.1" rx="1" fill="#fffdf8"/>
    <rect x="920" y="82.9" width="6" height="26.2" rx="1" fill="#fffdf8"/>
    <rect x="930" y="83.6" width="6" height="24.7" rx="1" fill="#fffdf8"/>
    <rect x="940" y="72.7" width="6" height="46.6" rx="1" fill="#fffdf8"/>
    <rect x="950" y="80.6" width="6" height="30.8" rx="1" fill="#fffdf8"/>
    <rect x="960" y="84.7" width="6" height="22.6" rx="1" fill="#fffdf8"/>
    <rect x="970" y="86.7" width="6" height="18.5" rx="1" fill="#fffdf8"/>
    <rect x="980" y="86.6" width="6" height="18.8" rx="1" fill="#fffdf8"/>
    <rect x="990" y="87.0" width="6" height="18.0" rx="1" fill="#fffdf8"/>
  <text x="220" y="154" fill="#c2bfb5" font-family="Georgia, 'Times New Roman', serif" font-size="14">LOCAL AUDIO  ·  on disk</text>
  <g id="lfmt-local-badge">
    <path d="M838 148 c0-7 6-11 14-11 2-7 9-11 16-8 6-6 16-4 20 4 7 0 12 6 11 12" fill="none" stroke="#8a2f1f" stroke-width="2"/>
    <line x1="834" y1="136" x2="872" y2="154" stroke="#8a2f1f" stroke-width="2.5"/>
    <text x="884" y="154" fill="#fffdf8" font-family="Georgia, 'Times New Roman', serif" font-size="16">on this machine</text>
  </g>

  <!-- Vosk column -->
  <rect x="28" y="184" width="352" height="372" fill="#fffdf8" stroke="#16130e" stroke-width="2"/>
  <rect x="28" y="184" width="352" height="48" fill="#e1ded5"/>
  <text x="48" y="216" fill="#3a352c" font-family="Georgia, 'Times New Roman', serif" font-size="15" letter-spacing="2">LIVE  ·  VOSK</text>
  <text x="48" y="268" fill="#6b6455" font-family="Georgia, 'Times New Roman', serif" font-size="16">13:58</text>
  <text x="108" y="268" fill="#3a352c" font-family="Georgia, 'Times New Roman', serif" font-size="20">can we start</text>
  <rect x="40" y="288" width="328" height="86" fill="#f5f3ed" stroke="#8a2f1f" stroke-width="2"/>
  <text x="56" y="322" fill="#6b6455" font-family="Georgia, 'Times New Roman', serif" font-size="16">14:02</text>
  <text x="56" y="356" fill="#16130e" font-family="Georgia, 'Times New Roman', serif" font-size="26">ship Friday</text>
  <text x="48" y="416" fill="#6b6455" font-family="Georgia, 'Times New Roman', serif" font-size="16">14:11</text>
  <text x="108" y="416" fill="#3a352c" font-family="Georgia, 'Times New Roman', serif" font-size="20">I'll take notes</text>
  <text x="48" y="464" fill="#6b6455" font-family="Georgia, 'Times New Roman', serif" font-size="16">14:18</text>
  <text x="108" y="464" fill="#3a352c" font-family="Georgia, 'Times New Roman', serif" font-size="20">lock the items</text>
  <text x="48" y="536" fill="#736b5a" font-family="Georgia, 'Times New Roman', serif" font-size="16" font-style="italic">fast  ·  imperfect</text>

  <!-- Whisper column -->
  <rect x="820" y="184" width="352" height="372" fill="#fffdf8" stroke="#16130e" stroke-width="2"/>
  <rect x="820" y="184" width="352" height="48" fill="#e1ded5"/>
  <text x="840" y="216" fill="#3a352c" font-family="Georgia, 'Times New Roman', serif" font-size="15" letter-spacing="2">REFINED  ·  WHISPER</text>
  <text x="840" y="268" fill="#6b6455" font-family="Georgia, 'Times New Roman', serif" font-size="16">13:58</text>
  <text x="900" y="268" fill="#3a352c" font-family="Georgia, 'Times New Roman', serif" font-size="20">can we start</text>
  <rect x="832" y="288" width="328" height="86" fill="#f5f3ed" stroke="#8a2f1f" stroke-width="2"/>
  <text x="848" y="322" fill="#6b6455" font-family="Georgia, 'Times New Roman', serif" font-size="16">14:02</text>
  <text x="848" y="356" fill="#16130e" font-family="Georgia, 'Times New Roman', serif" font-size="26">skip Friday</text>
  <text x="840" y="416" fill="#6b6455" font-family="Georgia, 'Times New Roman', serif" font-size="16">14:11</text>
  <text x="900" y="416" fill="#3a352c" font-family="Georgia, 'Times New Roman', serif" font-size="20">I'll take notes</text>
  <text x="840" y="464" fill="#6b6455" font-family="Georgia, 'Times New Roman', serif" font-size="16">14:18</text>
  <text x="900" y="464" fill="#3a352c" font-family="Georgia, 'Times New Roman', serif" font-size="20">log the items</text>
  <text x="840" y="536" fill="#736b5a" font-family="Georgia, 'Times New Roman', serif" font-size="16" font-style="italic">slower  ·  still local</text>

  <!-- Review queue card — the product -->
  <rect x="348" y="248" width="504" height="292" fill="#fffdf8" stroke="#8a5a20" stroke-width="4"/>
  <rect x="348" y="248" width="504" height="56" fill="#8a5a20"/>
  <text x="372" y="284" fill="#fffdf8" font-family="Georgia, 'Times New Roman', serif" font-size="20" letter-spacing="1">REVIEW QUEUE  ·  2 of 6</text>
  <text x="600" y="344" text-anchor="middle" fill="#6b6455" font-family="Georgia, 'Times New Roman', serif" font-size="20">14:02</text>
  <text x="600" y="382" text-anchor="middle" fill="#16130e" font-family="Georgia, 'Times New Roman', serif" font-size="24">we should</text>
  <rect x="388" y="404" width="196" height="60" fill="#3f6135"/>
  <text x="486" y="444" text-anchor="middle" fill="#fffdf8" font-family="Georgia, 'Times New Roman', serif" font-size="28">ship</text>
  <rect x="616" y="404" width="196" height="60" fill="#fffdf8" stroke="#8a2f1f" stroke-width="2"/>
  <text x="714" y="444" text-anchor="middle" fill="#8a2f1f" font-family="Georgia, 'Times New Roman', serif" font-size="28">skip</text>
  <text x="600" y="508" text-anchor="middle" fill="#16130e" font-family="Georgia, 'Times New Roman', serif" font-size="24">Friday</text>

  <!-- Structured notes only after agreement -->
  <path d="M600 540 v36" fill="none" stroke="#3f6135" stroke-width="3"/>
  <rect x="160" y="576" width="880" height="292" fill="#fffdf8" stroke="#3f6135" stroke-width="2.5"/>
  <text x="192" y="620" fill="#3f6135" font-family="Georgia, 'Times New Roman', serif" font-size="16" letter-spacing="2">NOTES  ·  after agreement</text>
  <text x="192" y="678" fill="#736b5a" font-family="Georgia, 'Times New Roman', serif" font-size="18">Decision</text>
  <text x="340" y="678" fill="#16130e" font-family="Georgia, 'Times New Roman', serif" font-size="32">ship Friday</text>
  <line x1="192" y1="708" x2="1008" y2="708" stroke="#e0d9cc" stroke-width="1.5"/>
  <text x="192" y="760" fill="#736b5a" font-family="Georgia, 'Times New Roman', serif" font-size="18">Action</text>
  <text x="340" y="760" fill="#16130e" font-family="Georgia, 'Times New Roman', serif" font-size="32">lock the items</text>
  <text x="192" y="832" fill="#6b6455" font-family="Georgia, 'Times New Roman', serif" font-size="18">Written only from the line a person agreed.</text>
</svg>
